:FULLY-SPECIFIED
:FORCE-ALL-JOINTS-BE-3DOF
:DEGREES
1020
root -0.280563 15.0023 -31.9441 -0.915175 -3.60772 1.91348
lfemur -18.9705 7.26566 -8.05672
ltibia 53.8512 -0 0
lfoot -16.8201 19.2896 -1.04027
ltoes -17.4415 0 0
rfemur -40.7636 -11.2651 5.44967
rtibia 46.8523 -0 0
rfoot 11.6713 -3.63838 3.28412
rtoes 2.0511 -0 0
lowerback 13.719 1.43061 -5.14509
upperback -0.788389 1.22795 2.08106
thorax -8.45215 0.877061 4.89669
lowerneck -2.95529 -1.13538 -5.36909
upperneck 8.22173 -1.38687 2.63891
head 3.592 -0.797383 1.57226
lclavicle 2.36615e-17 -1.03475e-14 -6.59812e-30
lhumerus -8.88402 -41.9837 86.2159
lradius 92.6362 -0 0
lwrist 6.35619 0 0
lhand -30.436 36.046 0.2271
lfingers 7.12502 -0 0
lthumb -4.56503 78.9216 -0.755332
rclavicle 2.36615e-17 -1.03475e-14 -6.59812e-30
rhumerus -15.6122 26.8622 -76.9574
rradius 108.62 -0 0
rwrist -41.7084 0 0
rhand 1.90853 -25.1865 -0.417
rfingers 7.12502 -0 0
rthumb 27.4018 -53.0822 -0.356375
1021
root -0.269882 15.0028 -31.8945 -0.945735 -3.2953 1.93111
lfemur -18.8648 7.19334 -8.18847
ltibia 53.9334 -0 0
lfoot -17.0087 19.3478 -1.03298
ltoes -17.4746 0 0
rfemur -40.9185 -11.2103 5.42168
rtibia 46.7313 -0 0
rfoot 11.9171 -3.47104 3.25302
rtoes 2.18705 -0 0
lowerback 13.7148 1.41176 -5.1888
upperback -0.78545 1.19628 2.08649
thorax -8.44572 0.863752 4.9346
lowerneck -2.93625 -1.20758 -5.42644
upperneck 8.22825 -1.48572 2.68717
head 3.59196 -0.846152 1.59245
lclavicle 7.20529e-16 -1.02353e-14 -6.57165e-30
lhumerus -8.96478 -42.2529 86.4264
lradius 92.879 -0 0
lwrist 6.63311 0 0
lhand -30.405 36.0689 0.227316
lfingers 7.12502 -0 0
lthumb -4.53836 78.9862 -0.761144
rclavicle 7.20529e-16 -1.02353e-14 -6.57165e-30
rhumerus -15.2499 26.8887 -76.8594
rradius 108.546 -0 0
rwrist -41.3227 0 0
rhand 1.97947 -25.2506 -0.413423
rfingers 7.12502 -0 0
rthumb 27.4698 -53.137 -0.353422
1022
root -0.259232 15.0033 -31.8449 -0.976031 -2.98366 1.94844
lfemur -18.7596 7.12151 -8.32011
ltibia 54.0156 -0 0
lfoot -17.1967 19.4056 -1.02553
ltoes -17.5077 0 0
rfemur -41.0728 -11.1555 5.39384
rtibia 46.6108 -0 0
rfoot 12.1618 -3.30447 3.22135
rtoes 2.32247 -0 0
lowerback 13.7106 1.39296 -5.23232
upperback -0.782545 1.16471 2.09193
thorax -8.43935 0.850484 4.97238
lowerneck -2.91721 -1.27961 -5.48369
upperneck 8.23461 -1.58435 2.73532
head 3.59189 -0.89481 1.61261
lclavicle 1.41561e-15 -1.01233e-14 -6.54374e-30
lhumerus -9.04644 -42.5211 86.6378
lradius 93.1212 -0 0
lwrist 6.90982 0 0
lhand -30.3742 36.0919 0.227497
lfingers 7.12502 -0 0
lthumb -4.51171 79.0491 -0.766858
rclavicle 1.41561e-15 -1.01233e-14 -6.54374e-30
rhumerus -14.8884 26.9147 -76.7615
rradius 108.472 -0 0
rwrist -40.938 0 0
rhand 2.05011 -25.3145 -0.409777
rfingers 7.12502 -0 0
rthumb 27.5375 -53.1915 -0.350413
1023
root -0.248615 15.0038 -31.7952 -1.00606 -2.67283 1.96546
lfemur -18.6549 7.05016 -8.45164
ltibia 54.0978 -0 0
lfoot -17.3842 19.4631 -1.0179
ltoes -17.5409 0 0
rfemur -41.2266 -11.1009 5.36617
rtibia 46.4907 -0 0
rfoot 12.4052 -3.1387 3.18913
rtoes 2.45736 -0 0
lowerback 13.7064 1.37421 -5.27566
upperback -0.779675 1.13325 2.09736
thorax -8.43305 0.837258 5.01004
lowerneck -2.89817 -1.35145 -5.54084
upperneck 8.24082 -1.68276 2.78336
head 3.59178 -0.943353 1.63273
lclavicle 2.10884e-15 -1.00113e-14 -6.51439e-30
lhumerus -9.129 -42.7881 86.85
lradius 93.3628 -0 0
lwrist 7.1863 0 0
lhand -30.3436 36.1151 0.227644
lfingers 7.12502 -0 0
lthumb -4.48509 79.1102 -0.772471
rclavicle 2.10884e-15 -1.00113e-14 -6.51439e-30
rhumerus -14.5276 26.9403 -76.6637
rradius 108.398 -0 0
rwrist -40.5542 0 0
rhand 2.12044 -25.3781 -0.406066
rfingers 7.12502 -0 0
rthumb 27.6048 -53.2459 -0.347348
1024
root -0.238031 15.0043 -31.7454 -1.03583 -2.36282 1.98218
lfemur -18.5508 6.97929 -8.58305
ltibia 54.1801 -0 0
lfoot -17.5711 19.5204 -1.01009
ltoes -17.5742 0 0
rfemur -41.3798 -11.0464 5.33866
rtibia 46.3711 -0 0
rfoot 12.6474 -2.97374 3.15636
rtoes 2.5917 -0 0
lowerback 13.7023 1.35553 -5.31881
upperback -0.776841 1.10191 2.1028
thorax -8.42681 0.824075 5.04756
lowerneck -2.87913 -1.4231 -5.59789
upperneck 8.24688 -1.78094 2.83129
head 3.59165 -0.991778 1.65281
lclavicle 2.80016e-15 -9.89943e-15 -6.48363e-30
lhumerus -9.21245 -43.0541 87.063
lradius 93.6037 -0 0
lwrist 7.46255 0 0
lhand -30.3131 36.1385 0.227756
lfingers 7.12502 -0 0
lthumb -4.45848 79.1694 -0.777979
rclavicle 2.80016e-15 -9.89943e-15 -6.48363e-30
rhumerus -14.1675 26.9654 -76.5659
rradius 108.325 -0 0
rwrist -40.1714 0 0
rhand 2.19044 -25.4414 -0.402288
rfingers 7.12502 -0 0
rthumb 27.6719 -53.3 -0.344228
1025
root -0.227482 15.0048 -31.6955 -1.06534 -2.05366 1.9986
lfemur -18.4473 6.90892 -8.71432
ltibia 54.2624 -0 0
lfoot -17.7574 19.5773 -1.00212
ltoes -17.6075 0 0
rfemur -41.5323 -10.9921 5.31134
rtibia 46.252 -0 0
rfoot 12.8883 -2.8096 3.12307
rtoes 2.72548 -0 0
lowerback 13.6983 1.33691 -5.36177
upperback -0.774043 1.07067 2.10823
thorax -8.42063 0.810936 5.08496
lowerneck -2.86009 -1.49455 -5.65482
upperneck 8.25278 -1.87888 2.8791
head 3.59148 -1.04008 1.67284
lclavicle 3.48952e-15 -9.78769e-15 -6.45146e-30
lhumerus -9.29678 -43.319 87.2768
lradius 93.8441 -0 0
lwrist 7.73854 0 0
lhand -30.2828 36.162 0.227834
lfingers 7.12502 -0 0
lthumb -4.4319 79.2268 -0.78338
rclavicle 3.48952e-15 -9.78769e-15 -6.45146e-30
rhumerus -13.8082 26.99 -76.4683
rradius 108.252 -0 0
rwrist -39.7897 0 0
rhand 2.26013 -25.5045 -0.398447
rfingers 7.12502 -0 0
rthumb 27.7386 -53.3539 -0.341055
1026
root -0.216968 15.0052 -31.6456 -1.09458 -1.74538 2.01472
lfemur -18.3443 6.83903 -8.84545
ltibia 54.3447 -0 0
lfoot -17.9431 19.6339 -0.993989
ltoes -17.6409 0 0
rfemur -41.6842 -10.9378 5.2842
rtibia 46.1335 -0 0
rfoot 13.1279 -2.64631 3.08927
rtoes 2.85868 -0 0
lowerback 13.6942 1.31834 -5.40454
upperback -0.771281 1.03956 2.11367
thorax -8.41451 0.797843 5.12221
lowerneck -2.84106 -1.5658 -5.71165
upperneck 8.25853 -1.97658 2.9268
head 3.59129 -1.08826 1.69283
lclavicle 4.17684e-15 -9.67609e-15 -6.4179e-30
lhumerus -9.38197 -43.5827 87.4914
lradius 94.0837 -0 0
lwrist 8.01426 0 0
lhand -30.2527 36.1856 0.227877
lfingers 7.12502 -0 0
lthumb -4.40535 79.2824 -0.788669
rclavicle 4.17684e-15 -9.67609e-15 -6.4179e-30
rhumerus -13.4498 27.0142 -76.3708
rradius 108.179 -0 0
rwrist -39.409 0 0
rhand 2.32947 -25.5673 -0.394543
rfingers 7.12502 -0 0
rthumb 27.8051 -53.4076 -0.33783
1027
root -0.20649 15.0057 -31.5956 -1.12356 -1.438 2.03055
lfemur -18.242 6.76965 -8.97642
ltibia 54.427 -0 0
lfoot -18.1281 19.6902 -0.985693
ltoes -17.6743 0 0
rfemur -41.8355 -10.8836 5.25725
rtibia 46.0154 -0 0
rfoot 13.3663 -2.48387 3.05497
rtoes 2.9913 -0 0
lowerback 13.6902 1.29984 -5.44711
upperback -0.768555 1.00857 2.1191
thorax -8.40846 0.784786 5.15935
lowerneck -2.82204 -1.63684 -5.76835
upperneck 8.26412 -2.07402 2.97437
head 3.59106 -1.13631 1.71278
lclavicle 4.86207e-15 -9.56464e-15 -6.38296e-30
lhumerus -9.46802 -43.8453 87.7068
lradius 94.3227 -0 0
lwrist 8.28969 0 0
lhand -30.2227 36.2095 0.227884
lfingers 7.12502 -0 0
lthumb -4.37883 79.336 -0.793844
rclavicle 4.86207e-15 -9.56464e-15 -6.38296e-30
rhumerus -13.0922 27.038 -76.2734
rradius 108.106 -0 0
rwrist -39.0294 0 0
rhand 2.39848 -25.6298 -0.390578
rfingers 7.12502 -0 0
rthumb 27.8712 -53.4611 -0.334554
1028
root -0.196049 15.0062 -31.5455 -1.15228 -1.13153 2.04607
lfemur -18.1403 6.70076 -9.10723
ltibia 54.5093 -0 0
lfoot -18.3126 19.7462 -0.977238
ltoes -17.7079 0 0
rfemur -41.9861 -10.8296 5.23049
rtibia 45.8978 -0 0
rfoot 13.6033 -2.3223 3.02018
rtoes 3.12332 -0 0
lowerback 13.6863 1.28141 -5.48947
upperback -0.765868 0.977695 2.12454
thorax -8.40247 0.771787 5.19632
lowerneck -2.80303 -1.70768 -5.82494
upperneck 8.26956 -2.1712 3.02182
head 3.5908 -1.18422 1.73268
lclavicle 5.54514e-15 -9.45336e-15 -6.34665e-30
lhumerus -9.55491 -44.1066 87.923
lradius 94.561 -0 0
lwrist 8.56482 0 0
lhand -30.1929 36.2334 0.227855
lfingers 7.12502 -0 0
lthumb -4.35233 79.3878 -0.798901
rclavicle 5.54514e-15 -9.45336e-15 -6.34665e-30
rhumerus -12.7355 27.0613 -76.1761
rradius 108.034 -0 0
rwrist -38.6509 0 0
rhand 2.46713 -25.6921 -0.386554
rfingers 7.12502 -0 0
rthumb 27.9369 -53.5143 -0.331227
1029
root -0.185646 15.0067 -31.4954 -1.18073 -0.826017 2.06129
lfemur -18.0393 6.63238 -9.23786
ltibia 54.5917 -0 0
lfoot -18.4964 19.8018 -0.968627
ltoes -17.7414 0 0
rfemur -42.1361 -10.7756 5.20393
rtibia 45.7808 -0 0
rfoot 13.8389 -2.16163 2.98492
rtoes 3.25472 -0 0
lowerback 13.6824 1.26304 -5.53163
upperback -0.763218 0.94695 2.12997
thorax -8.39656 0.758838 5.23315
lowerneck -2.78403 -1.77829 -5.8814
upperneck 8.27484 -2.26811 3.06914
head 3.59051 -1.232 1.75254
lclavicle 6.226e-15 -9.34226e-15 -6.30898e-30
lhumerus -9.64263 -44.3668 88.1399
lradius 94.7985 -0 0
lwrist 8.83962 0 0
lhand -30.1633 36.2576 0.22779
lfingers 7.12502 -0 0
lthumb -4.32586 79.4376 -0.803837
rclavicle 6.226e-15 -9.34226e-15 -6.30898e-30
rhumerus -12.3797 27.0842 -76.079
rradius 107.962 -0 0
rwrist -38.2736 0 0
rhand 2.53542 -25.754 -0.382472
rfingers 7.12502 -0 0
rthumb 28.0024 -53.5673 -0.327852
1030
root -0.175282 15.0071 -31.4452 -1.20893 -0.52147 2.07621
lfemur -17.9389 6.56451 -9.36831
ltibia 54.6741 -0 0
lfoot -18.6795 19.8571 -0.959863
ltoes -17.7751 0 0
rfemur -42.2854 -10.7218 5.17759
rtibia 45.6644 -0 0
rfoot 14.0732 -2.00185 2.94921
rtoes 3.38551 -0 0
lowerback 13.6785 1.24473 -5.57358
upperback -0.760607 0.916334 2.13541
thorax -8.39071 0.74594 5.26982
lowerneck -2.76504 -1.84869 -5.93772
upperneck 8.27997 -2.36475 3.11634
head 3.59019 -1.27964 1.77234
lclavicle 6.90459e-15 -9.23136e-15 -6.26998e-30
lhumerus -9.73117 -44.6257 88.3576
lradius 95.0353 -0 0
lwrist 9.11409 0 0
lhand -30.1339 36.2819 0.227689
lfingers 7.12502 -0 0
lthumb -4.29942 79.4854 -0.808649
rclavicle 6.90459e-15 -9.23136e-15 -6.26998e-30
rhumerus -12.0248 27.1067 -75.982
rradius 107.89 -0 0
rwrist -37.8975 0 0
rhand 2.60335 -25.8157 -0.378332
rfingers 7.12502 -0 0
rthumb 28.0674 -53.62 -0.32443
1031
root -0.164957 15.0076 -31.395 -1.23685 -0.217914 2.09084
lfemur -17.8391 6.49714 -9.49857
ltibia 54.7565 -0 0
lfoot -18.862 19.9121 -0.950951
ltoes -17.8088 0 0
rfemur -42.4339 -10.6681 5.15146
rtibia 45.5485 -0 0
rfoot 14.306 -1.843 2.91305
rtoes 3.51565 -0 0
lowerback 13.6747 1.2265 -5.61531
upperback -0.758034 0.885848 2.14084
thorax -8.38493 0.733093 5.30635
lowerneck -2.74607 -1.91886 -5.99392
upperneck 8.28494 -2.4611 3.1634
head 3.58983 -1.32714 1.7921
lclavicle 7.58084e-15 -9.12066e-15 -6.22965e-30
lhumerus -9.82052 -44.8834 88.576
lradius 95.2714 -0 0
lwrist 9.38821 0 0
lhand -30.1047 36.3064 0.227551
lfingers 7.12502 -0 0
lthumb -4.27302 79.5313 -0.813333
rclavicle 7.58084e-15 -9.12066e-15 -6.22965e-30
rhumerus -11.6709 27.1288 -75.8853
rradius 107.819 -0 0
rwrist -37.5226 0 0
rhand 2.67089 -25.8771 -0.374138
rfingers 7.12502 -0 0
rthumb 28.1322 -53.6725 -0.320961
1032
root -0.154673 15.0081 -31.3447 -1.26452 0.0846249 2.10517
lfemur -17.7401 6.43029 -9.62861
ltibia 54.8388 -0 0
lfoot -19.0437 19.9667 -0.941892
ltoes -17.8425 0 0
rfemur -42.5818 -10.6145 5.12555
rtibia 45.4331 -0 0
rfoot 14.5375 -1.68508 2.87647
rtoes 3.64515 -0 0
lowerback 13.6709 1.20834 -5.65682
upperback -0.755502 0.855497 2.14628
thorax -8.37922 0.720299 5.34271
lowerneck -2.72712 -1.9888 -6.04997
upperneck 8.28976 -2.55717 3.21032
head 3.58945 -1.37449 1.8118
lclavicle 8.25469e-15 -9.01019e-15 -6.18802e-30
lhumerus -9.91065 -45.1397 88.7951
lradius 95.5067 -0 0
lwrist 9.66196 0 0
lhand -30.0757 36.3311 0.227376
lfingers 7.12502 -0 0
lthumb -4.24665 79.5751 -0.817886
rclavicle 8.25469e-15 -9.01019e-15 -6.18802e-30
rhumerus -11.318 27.1504 -75.7887
rradius 107.748 -0 0
rwrist -37.1489 0 0
rhand 2.73806 -25.9382 -0.369891
rfingers 7.12502 -0 0
rthumb 28.1965 -53.7247 -0.317447
